# xmcd
#
# Track frame offsets: 
#        150
#        35593
#        79977
#        155907
#        188562
#        210695
#
# Disc length: 3178 seconds
#
# Revision: 0
# Processed by: cddbd v1.5.2PL0 Copyright (c) Steve Scherf et al.
# Submitted via: ExactAudioCopy v0.99pb4
#
DISCID=4e0c6806
DTITLE=½­Ìì -  ¸ÖÇÙÉÏµÄ¸è¾çÓëÒôÀÖ¾ç¡ª¡ªÎÒĞÄÖĞµÄ¸è
DYEAR=2006
DGENRE=
TTITLE0=Ò'óÀûÃûÇúÁª×à Ltalian Medley
TTITLE1=ÒôÀÖ¾çÖ÷ÌâÃûÇúÁª×à Broadway Medley
TTITLE2=µçÓ°Ö÷ÌâÃûÇúÁª×à Movie Medley
TTITLE3=ÀöËşÓ¡Ïó(½­ÌìÔ­Öø) Rita
TTITLE4=¾µ×Ó(½­ÌìÔ­Öø) Mirror
TTITLE5=±£ÎÀ»ÆºÓ Yellow River
EXTD=ÈÉ³½ÉîÇï£¬´åÃñ·ÖÏí
EXTT0=
EXTT1=
EXTT2=
EXTT3=
EXTT4=
EXTT5=
PLAYORDER=
